<?xml version="1.0" encoding="UTF-8" standalone="no"?>
<!DOCTYPE svg PUBLIC "-//W3C//DTD SVG 1.1//EN" "http://www.w3.org/Graphics/SVG/1.1/DTD/svg11.dtd">
<svg xmlns="http://www.w3.org/2000/svg" version="1.1" viewBox="0.00 0.00 75.00 88.00">
<path fill="#ffffff" d="
  M 44.73 88.00
  L 30.43 88.00
  L 30.18 74.11
  A 0.56 0.56 0.0 0 0 29.62 73.56
  L 1.86 73.56
  A 0.79 0.78 -0.0 0 1 1.07 72.78
  Q 1.07 61.14 1.09 31.52
  Q 1.09 30.14 3.08 28.08
  Q 15.35 15.40 30.04 1.19
  A 1.36 1.34 22.6 0 1 30.98 0.81
  L 43.67 0.81
  A 1.21 1.20 -0.0 0 1 44.88 2.01
  L 44.88 14.76
  A 0.59 0.58 -90.0 0 0 45.46 15.35
  L 73.25 15.35
  A 0.79 0.79 0.0 0 1 74.04 16.14
  Q 74.05 47.35 74.03 56.99
  C 74.02 58.91 72.66 60.16 71.34 61.53
  Q 58.29 75.05 44.73 88.00
  Z
  M 45.30 44.48
  A 0.39 0.39 0.0 0 1 44.91 44.09
  L 44.91 16.23
  A 0.39 0.39 0.0 0 0 44.24 15.96
  L 16.47 43.73
  A 0.39 0.39 0.0 0 0 16.74 44.40
  L 29.81 44.40
  A 0.39 0.39 0.0 0 1 30.20 44.79
  L 30.20 72.65
  A 0.39 0.39 0.0 0 0 30.87 72.92
  L 58.63 45.15
  A 0.39 0.39 0.0 0 0 58.36 44.48
  L 45.30 44.48
  Z"
/>
</svg>
