<?xml version="1.0" encoding="UTF-8" standalone="no"?>
<!DOCTYPE svg PUBLIC "-//W3C//DTD SVG 1.1//EN" "http://www.w3.org/Graphics/SVG/1.1/DTD/svg11.dtd">
<svg xmlns="http://www.w3.org/2000/svg" version="1.1" viewBox="0.00 0.00 285.00 88.00">
<path fill="#ffffff" d="
  M 44.78 88.00
  L 30.36 88.00
  L 30.18 74.17
  A 0.57 0.57 0.0 0 0 29.61 73.61
  L 1.72 73.61
  A 0.61 0.61 0.0 0 1 1.11 73.00
  Q 1.11 41.85 1.13 31.90
  Q 1.13 30.03 2.57 28.56
  Q 19.76 10.97 29.27 2.01
  C 31.74 -0.32 40.55 0.63 43.95 0.92
  A 0.94 0.93 2.7 0 1 44.80 1.85
  L 44.80 14.47
  A 0.93 0.92 -0.0 0 0 45.73 15.39
  L 73.46 15.39
  A 0.63 0.62 90.0 0 1 74.08 16.02
  L 74.08 56.86
  A 4.48 4.46 -22.7 0 1 72.78 60.01
  L 44.78 88.00
  Z
  M 45.30 44.48
  A 0.39 0.39 0.0 0 1 44.91 44.09
  L 44.91 16.23
  A 0.39 0.39 0.0 0 0 44.24 15.96
  L 16.47 43.73
  A 0.39 0.39 0.0 0 0 16.74 44.40
  L 29.81 44.40
  A 0.39 0.39 0.0 0 1 30.20 44.79
  L 30.20 72.65
  A 0.39 0.39 0.0 0 0 30.87 72.92
  L 58.63 45.15
  A 0.39 0.39 0.0 0 0 58.36 44.48
  L 45.30 44.48
  Z"
/>
<path fill="#ffffff" d="
  M 95.68 44.82
  A 0.26 0.26 0.0 0 1 95.94 44.58
  L 104.95 44.58
  A 0.24 0.23 2.2 0 1 105.19 44.83
  Q 104.67 53.01 110.57 54.89
  C 115.20 56.37 122.68 56.38 124.93 51.35
  Q 126.62 47.55 123.19 44.40
  A 3.56 3.48 76.2 0 0 122.06 43.70
  C 115.53 41.29 107.90 40.93 101.86 36.70
  Q 96.58 33.00 96.87 25.98
  Q 97.03 22.21 97.69 20.71
  C 101.47 12.18 110.18 10.62 118.90 11.62
  C 128.36 12.71 134.58 19.72 133.29 29.47
  A 0.61 0.60 3.8 0 1 132.69 29.99
  L 124.69 29.99
  A 0.60 0.59 -87.0 0 1 124.10 29.33
  Q 124.91 21.29 117.71 20.04
  C 113.85 19.36 108.07 19.73 106.55 23.81
  C 104.82 28.49 108.99 31.26 113.08 32.19
  C 121.58 34.13 133.81 36.22 134.92 46.94
  Q 135.61 53.59 131.15 58.36
  C 125.98 63.90 119.58 64.29 112.38 63.91
  Q 108.64 63.71 105.50 62.23
  Q 95.06 57.33 95.68 44.82
  Z"
/>
<path fill="#ffffff" d="
  M 271.30 63.24
  L 257.87 48.81
  A 0.44 0.44 0.0 0 0 257.11 49.11
  L 257.11 62.86
  A 0.44 0.44 0.0 0 1 256.67 63.30
  L 248.36 63.30
  A 0.44 0.44 0.0 0 1 247.92 62.86
  L 247.92 12.54
  A 0.44 0.44 0.0 0 1 248.36 12.10
  L 256.63 12.10
  A 0.44 0.44 0.0 0 1 257.07 12.54
  L 257.07 40.60
  A 0.44 0.44 0.0 0 0 257.84 40.90
  L 270.03 27.35
  A 0.44 0.44 0.0 0 1 270.36 27.20
  L 281.54 27.20
  A 0.44 0.44 0.0 0 1 281.85 27.95
  L 265.67 44.12
  A 0.44 0.44 0.0 0 0 265.66 44.73
  L 282.32 62.64
  A 0.44 0.44 0.0 0 1 282.00 63.38
  L 271.62 63.38
  A 0.44 0.44 0.0 0 1 271.30 63.24
  Z"
/>
<path fill="#ffffff" d="
  M 149.81 59.06
  A 0.58 0.58 0.0 0 0 148.84 59.49
  L 148.84 77.11
  A 0.54 0.54 0.0 0 1 148.30 77.65
  L 140.30 77.65
  A 0.60 0.60 0.0 0 1 139.70 77.05
  L 139.70 28.31
  A 1.07 1.07 0.0 0 1 140.77 27.24
  L 147.66 27.24
  A 1.09 1.09 0.0 0 1 148.75 28.33
  L 148.75 30.87
  A 0.67 0.67 0.0 0 0 149.95 31.28
  Q 154.40 25.71 161.74 26.11
  C 177.02 26.94 181.44 44.98 174.93 56.35
  C 171.03 63.17 164.29 65.04 156.85 63.71
  C 153.43 63.10 151.96 61.03 149.81 59.06
  Z
  M 168.28 43.17
  A 8.94 8.94 0.0 0 0 159.34 34.23
  L 157.74 34.23
  A 8.94 8.94 0.0 0 0 148.80 43.17
  L 148.80 47.21
  A 8.94 8.94 0.0 0 0 157.74 56.15
  L 159.34 56.15
  A 8.94 8.94 0.0 0 0 168.28 47.21
  L 168.28 43.17
  Z"
/>
<path fill="#ffffff" d="
  M 205.98 58.83
  A 0.57 0.57 0.0 0 0 204.96 58.74
  Q 202.14 63.44 197.15 63.92
  C 191.40 64.46 185.59 63.73 182.57 58.69
  Q 177.83 50.78 184.92 43.98
  Q 185.51 43.42 190.49 41.64
  A 4.44 4.44 0.0 0 1 191.93 41.40
  L 203.02 41.40
  A 2.17 2.17 0.0 0 0 204.97 38.29
  L 204.38 37.08
  A 5.99 5.98 -10.9 0 0 199.40 33.71
  Q 192.09 33.21 191.28 38.02
  A 1.14 1.14 0.0 0 1 189.78 38.90
  L 183.35 36.64
  A 1.15 1.15 0.0 0 1 182.69 35.08
  Q 184.88 30.30 188.93 28.22
  C 196.65 24.25 209.46 25.34 212.79 34.72
  C 214.81 40.42 213.17 49.69 213.86 54.32
  A 1.33 1.32 -76.5 0 0 214.41 55.22
  Q 215.47 55.96 216.94 55.62
  A 1.38 1.38 0.0 0 1 218.63 56.96
  L 218.66 62.39
  A 0.96 0.95 -80.6 0 1 217.39 63.30
  Q 217.37 63.30 212.51 63.32
  Q 207.66 63.35 205.98 58.83
  Z
  M 203.56 48.07
  Q 199.64 48.11 195.49 48.11
  C 188.40 48.11 188.26 56.08 194.73 56.77
  Q 201.46 57.48 204.25 51.75
  Q 205.09 50.01 204.54 48.71
  A 1.06 1.05 77.8 0 0 203.56 48.07
  Z"
/>
<path fill="#ffffff" d="
  M 222.20 62.68
  L 222.20 28.15
  A 0.93 0.92 0.0 0 1 223.13 27.23
  L 230.35 27.23
  A 0.99 0.98 0.0 0 1 231.34 28.21
  L 231.34 30.52
  A 0.56 0.56 0.0 0 0 232.32 30.90
  L 234.66 28.30
  A 2.59 2.56 -71.5 0 1 236.35 27.45
  L 242.78 26.85
  A 0.97 0.97 0.0 0 1 243.84 27.82
  L 243.84 34.21
  A 0.94 0.94 0.0 0 1 242.80 35.14
  C 237.66 34.59 231.60 35.75 231.53 42.26
  Q 231.47 49.05 231.51 62.60
  A 0.79 0.79 0.0 0 1 230.72 63.39
  L 222.91 63.39
  A 0.71 0.71 0.0 0 1 222.20 62.68
  Z"
/>
</svg>
