<?xml version="1.0" encoding="utf-8"?>
<!-- Generator: Adobe Illustrator 27.7.0, SVG Export Plug-In . SVG Version: 6.00 Build 0)  -->
<svg version="1.1" id="Layer_1" xmlns="http://www.w3.org/2000/svg" xmlns:xlink="http://www.w3.org/1999/xlink" x="0px" y="0px"
	 viewBox="0 0 75 88" style="enable-background:new 0 0 75 88;" xml:space="preserve">
<path d="M44.7,88H30.4l-0.2-13.9c0-0.3-0.3-0.6-0.6-0.6H1.9c-0.4,0-0.8-0.3-0.8-0.8c0-7.8,0-21.5,0-41.3c0-0.9,0.7-2.1,2-3.4
	c8.2-8.5,17.2-17.4,27-26.9c0.3-0.2,0.6-0.4,0.9-0.4h12.7c0.7,0,1.2,0.5,1.2,1.2c0,0,0,0,0,0v12.8c0,0.3,0.3,0.6,0.6,0.6h27.8
	c0.4,0,0.8,0.4,0.8,0.8c0,20.8,0,34.4,0,40.9c0,1.9-1.4,3.2-2.7,4.5C62.6,70.5,53.8,79.4,44.7,88z M45.3,44.5
	c-0.2,0-0.4-0.2-0.4-0.4V16.2c0-0.2-0.2-0.4-0.4-0.4c-0.1,0-0.2,0-0.3,0.1L16.5,43.7c-0.2,0.1-0.2,0.4,0,0.6
	c0.1,0.1,0.2,0.1,0.3,0.1h13.1c0.2,0,0.4,0.2,0.4,0.4l0,0v27.9c0,0.2,0.2,0.4,0.4,0.4c0.1,0,0.2,0,0.3-0.1l27.8-27.8
	c0.2-0.1,0.2-0.4,0-0.6c-0.1-0.1-0.2-0.1-0.3-0.1H45.3z"/>
</svg>
